<svg xmlns="http://www.w3.org/2000/svg" width="256" height="256" viewBox="0 0 16 16">
  <defs>
    <linearGradient id="bodyGradient" x1="0%" y1="0%" x2="100%" y2="100%">
      <stop offset="0%" stop-color="#ffffff" />
      <stop offset="40%" stop-color="#adb5bd" />
      <stop offset="60%" stop-color="#495057" />
      <stop offset="100%" stop-color="#212529" />
    </linearGradient>
    <linearGradient id="needleGradient" x1="0%" y1="0%" x2="100%" y2="100%">
      <stop offset="0%" stop-color="#a5d8ff" />
      <stop offset="50%" stop-color="#339af0" />
      <stop offset="100%" stop-color="#1864ab" />
    </linearGradient>
    <filter id="depth" x="-20%" y="-20%" width="140%" height="140%">
      <feGaussianBlur in="SourceAlpha" stdDeviation="0.15" />
      <feOffset dx="0.2" dy="0.2" result="offsetblur" />
      <feFlood flood-color="rgba(0,0,0,0.5)" />
      <feComposite in2="offsetblur" operator="in" />
      <feMerge>
        <feMergeNode />
        <feMergeNode in="SourceGraphic" />
      </feMerge>
    </filter>
  </defs>
  <path d="M8 16.016a7.5 7.5 0 0 0 1.962-14.74A1 1 0 0 0 9 0H7a1 1 0 0 0-.962 1.276A7.5 7.5 0 0 0 8 16.016m6.5-7.5a6.5 6.5 0 1 1-13 0 6.5 6.5 0 0 1 13 0" 
        fill="url(#bodyGradient)" 
        filter="url(#depth)" 
        stroke="#212529" 
        stroke-width="0.1" />
  <path d="m6.94 7.44 4.95-2.83-2.83 4.95-4.949 2.83 2.828-4.95z" 
        fill="url(#needleGradient)" 
        filter="url(#depth)"
        stroke="#212529"
        stroke-width="0.05">
    <animateTransform
      attributeName="transform"
      type="rotate"
      values="0 8 8; 15 8 8; -15 8 8; 0 8 8; 0 8 8"
      keyTimes="0; 0.05; 0.1; 0.15; 1"
      dur="4s"
      repeatCount="indefinite" />
  </path>
</svg>